<svg xmlns="http://www.w3.org/2000/svg" width="640" height="160" viewBox="0 0 640 160">
  <g transform="translate(0.5,0.5)" text-anchor="middle" font-size="9" font-family="sans-serif" font-weight="normal">
    <g transform="translate(4,94)">
      <g stroke="black" stroke-width="1" stroke-linecap="round">
        <line x2="631"/>
        <line y2="63"/>
        <line x2="631" y1="63" y2="63"/>
        <line x1="631" x2="631" y2="63"/>
        <line x1="592" x2="592" y2="63"/>
        <line x1="552" x2="552" y2="63"/>
        <line x1="513" x2="513" y2="63"/>
        <line x1="473" x2="473" y2="63"/>
        <line x1="434" x2="434" y2="63"/>
        <line x1="394" x2="394" y2="63"/>
        <line x1="355" x2="355" y2="63"/>
        <line x1="316" x2="316" y2="63"/>
        <line x1="276" x2="276" y2="63"/>
        <line x1="237" x2="237" y2="63"/>
        <line x1="197" x2="197" y2="63"/>
        <line x1="158" x2="158" y2="63"/>
        <line x1="118" x2="118" y2="63"/>
        <line x1="79" x2="79" y2="63"/>
        <line x1="39" x2="39" y2="63"/>
      </g>
      <g>
        <g>
          <rect x="355" width="39" height="63" field="undefined" style="fill-opacity:0.1"/>
          <rect x="197" width="39" height="63" field="undefined" style="fill-opacity:0.1"/>
          <rect x="158" width="39" height="63" field="undefined" style="fill-opacity:0.1"/>
          <rect x="79" width="39" height="63" field="undefined" style="fill-opacity:0.1"/>
        </g>
        <g transform="translate(20,-9)">
          <g transform="translate(592)">
            <text y="6">0</text>
          </g>
          <g transform="translate(552)">
            <text y="6">1</text>
          </g>
          <g transform="translate(513)">
            <text y="6">2</text>
          </g>
          <g transform="translate(473)">
            <text y="6">3</text>
          </g>
          <g transform="translate(434)">
            <text y="6">4</text>
          </g>
          <g transform="translate(394)">
            <text y="6">5</text>
          </g>
          <g transform="translate(355)">
            <text y="6">6</text>
          </g>
          <g transform="translate(316)">
            <text y="6">7</text>
          </g>
          <g transform="translate(276)">
            <text y="6">8</text>
          </g>
          <g transform="translate(237)">
            <text y="6">9</text>
          </g>
          <g transform="translate(197)">
            <text y="6">10</text>
          </g>
          <g transform="translate(158)">
            <text y="6">11</text>
          </g>
          <g transform="translate(118)">
            <text y="6">12</text>
          </g>
          <g transform="translate(79)">
            <text y="6">13</text>
          </g>
          <g transform="translate(39)">
            <text y="6">14</text>
          </g>
          <g transform="translate(0)">
            <text y="6">15</text>
          </g>
        </g>
        <g transform="translate(20,29)">
          <g transform="translate(592)">
            <text y="6">
              <tspan>M</tspan>
            </text>
          </g>
          <g transform="translate(552)">
            <text y="6">
              <tspan>A</tspan>
            </text>
          </g>
          <g transform="translate(513)">
            <text y="6">
              <tspan>C</tspan>
            </text>
          </g>
          <g transform="translate(473)">
            <text y="6">
              <tspan>SA</tspan>
            </text>
          </g>
          <g transform="translate(434)">
            <text y="6">
              <tspan>SA0</tspan>
            </text>
          </g>
          <g transform="translate(394)">
            <text y="6">
              <tspan>CP15BEN</tspan>
            </text>
          </g>
          <g transform="translate(316)">
            <text y="6">
              <tspan>ITD</tspan>
            </text>
          </g>
          <g transform="translate(276)">
            <text y="6">
              <tspan>SED</tspan>
            </text>
          </g>
          <g transform="translate(237)">
            <text y="6">
              <tspan>UMA</tspan>
            </text>
          </g>
          <g transform="translate(118)">
            <text y="6">
              <tspan>I</tspan>
            </text>
          </g>
          <g transform="translate(39)">
            <text y="6">
              <tspan>DZE</tspan>
            </text>
          </g>
          <g transform="translate(0)">
            <text y="6">
              <tspan>UCT</tspan>
            </text>
          </g>
        </g>
        <g transform="translate(20,67)"/>
      </g>
    </g>
    <g transform="translate(4,14)">
      <g stroke="black" stroke-width="1" stroke-linecap="round">
        <line x2="631"/>
        <line y2="63"/>
        <line x2="631" y1="63" y2="63"/>
        <line x1="631" x2="631" y2="63"/>
        <line x1="592" x2="592" y2="63"/>
        <line x1="552" x2="552" y2="63"/>
        <line x1="513" x2="513" y2="63"/>
        <line x1="473" x2="473" y2="63"/>
        <line x1="434" x2="434" y2="63"/>
        <line x1="394" x2="394" y2="63"/>
        <line x1="355" x2="355" y2="7"/>
        <line x1="355" x2="355" y1="63" y2="56"/>
        <line x1="316" x2="316" y2="63"/>
        <line x1="276" x2="276" y2="63"/>
        <line x1="237" x2="237" y2="63"/>
        <line x1="197" x2="197" y2="63"/>
        <line x1="158" x2="158" y2="63"/>
        <line x1="118" x2="118" y2="7"/>
        <line x1="118" x2="118" y1="63" y2="56"/>
        <line x1="79" x2="79" y2="63"/>
        <line x1="39" x2="39" y2="7"/>
        <line x1="39" x2="39" y1="63" y2="56"/>
      </g>
      <g>
        <g>
          <rect x="552" width="39" height="63" field="undefined" style="fill-opacity:0.1"/>
          <rect x="434" width="39" height="63" field="undefined" style="fill-opacity:0.1"/>
          <rect x="394" width="39" height="63" field="undefined" style="fill-opacity:0.1"/>
          <rect x="316" width="79" height="63" field="undefined" style="fill-opacity:0.1"/>
          <rect x="158" width="39" height="63" field="undefined" style="fill-opacity:0.1"/>
          <rect x="79" width="79" height="63" field="undefined" style="fill-opacity:0.1"/>
          <rect width="79" height="63" field="undefined" style="fill-opacity:0.1"/>
        </g>
        <g transform="translate(20,-9)">
          <g transform="translate(592)">
            <text y="6">16</text>
          </g>
          <g transform="translate(552)">
            <text y="6">17</text>
          </g>
          <g transform="translate(513)">
            <text y="6">18</text>
          </g>
          <g transform="translate(473)">
            <text y="6">19</text>
          </g>
          <g transform="translate(434)">
            <text y="6">20</text>
          </g>
          <g transform="translate(394)">
            <text y="6">21</text>
          </g>
          <g transform="translate(355)">
            <text y="6">22</text>
          </g>
          <g transform="translate(316)">
            <text y="6">23</text>
          </g>
          <g transform="translate(276)">
            <text y="6">24</text>
          </g>
          <g transform="translate(237)">
            <text y="6">25</text>
          </g>
          <g transform="translate(197)">
            <text y="6">26</text>
          </g>
          <g transform="translate(158)">
            <text y="6">27</text>
          </g>
          <g transform="translate(118)">
            <text y="6">28</text>
          </g>
          <g transform="translate(79)">
            <text y="6">29</text>
          </g>
          <g transform="translate(39)">
            <text y="6">30</text>
          </g>
          <g transform="translate(0)">
            <text y="6">31</text>
          </g>
        </g>
        <g transform="translate(20,29)">
          <g transform="translate(592)">
            <text y="6">
              <tspan>nTWI</tspan>
            </text>
          </g>
          <g transform="translate(513)">
            <text y="6">
              <tspan>nTWE</tspan>
            </text>
          </g>
          <g transform="translate(473)">
            <text y="6">
              <tspan>WXN</tspan>
            </text>
          </g>
          <g transform="translate(276)">
            <text y="6">
              <tspan>EOE</tspan>
            </text>
          </g>
          <g transform="translate(237)">
            <text y="6">
              <tspan>EE</tspan>
            </text>
          </g>
          <g transform="translate(197)">
            <text y="6">
              <tspan>UCI</tspan>
            </text>
          </g>
        </g>
        <g transform="translate(20,67)"/>
      </g>
    </g>
  </g>
</svg>

